<?xml version="1.0" encoding="utf-8"?>
<!-- Generator: Adobe Illustrator 26.5.1, SVG Export Plug-In . SVG Version: 6.00 Build 0)  -->
<svg version="1.1" id="Layer_1" xmlns="http://www.w3.org/2000/svg" xmlns:xlink="http://www.w3.org/1999/xlink" x="0px" y="0px"
	 viewBox="0 0 81.48 24.59" style="enable-background:new 0 0 81.48 24.59;" xml:space="preserve">
<g>
	<path d="M4.32,10.8c0-5.1,3.96-8.35,9.65-8.35c4.81,0,7.77,2.66,7.77,8.1v9.7c0,0.71-0.57,1.28-1.28,1.28h0
		c-0.71,0-1.28-0.57-1.28-1.28v-9.45c0-4-2.09-6.05-5.69-6.05c-4.07,0-6.62,2.52-6.62,6.84v9.27c0,0.37-0.3,0.67-0.67,0.67H4.32
		 M4.32,10.8"/>
	<path d="M25.11,2.51L25.11,2.51c0.71,0,1.28,0.57,1.28,1.28v16.38c0,0.71-0.57,1.28-1.28,1.28h0c-0.71,0-1.28-0.57-1.28-1.28V3.79
		C23.83,3.09,24.4,2.51,25.11,2.51z"/>
	<path d="M56.99,2.44c0.71,0,1.28,0.57,1.28,1.28v9.2c0,5.62-2.74,8.64-7.96,8.64c-2.63,0-4.65-0.77-5.97-2.62
		c-0.37-0.52-1.14-0.54-1.51-0.02c-1.28,1.82-3.25,2.64-5.99,2.64c-5.26,0-7.95-3.02-7.95-8.64v-9.2c0-0.71,0.57-1.28,1.28-1.28h0
		c0.71,0,1.28,0.57,1.28,1.28v8.98c0,4.46,1.66,6.55,5.4,6.55c3.71,0,5.47-2.09,5.47-6.62V3.72c0-0.71,0.57-1.28,1.28-1.28h0
		c0.71,0,1.28,0.57,1.28,1.28v8.91c0,4.54,1.73,6.62,5.47,6.62c3.67,0,5.36-2.09,5.36-6.55V3.72C55.71,3.01,56.29,2.44,56.99,2.44
		L56.99,2.44z"/>
	<path d="M60.04,11.52c0-5.62,4.1-9.61,9.65-9.61c5.54,0,9.61,4,9.61,9.61s-4.07,9.65-9.61,9.65
		C64.15,21.17,60.04,17.14,60.04,11.52z M76.71,11.52c0-4.43-2.99-7.38-7.02-7.38c-4.03,0-7.06,2.95-7.06,7.38s3.02,7.38,7.06,7.38
		C73.72,18.9,76.71,15.95,76.71,11.52z"/>
</g>
</svg>
