<?xml version="1.0" encoding="utf-8"?>
<!-- Generator: Adobe Illustrator 28.1.0, SVG Export Plug-In . SVG Version: 6.00 Build 0)  -->
<svg version="1.1" id="Layer_1" xmlns="http://www.w3.org/2000/svg" xmlns:xlink="http://www.w3.org/1999/xlink" x="0px" y="0px"
	 viewBox="0 0 20.5 20.6" style="enable-background:new 0 0 20.5 20.6;" xml:space="preserve">
<style type="text/css">
	.st0{fill:#FFFFFF;stroke:#FFFFFF;stroke-miterlimit:10;}
</style>
<ellipse cx="10.3" cy="10.3" rx="9.8" ry="9.6"/>
<g>
	<path class="st0" d="M4.6,8.7c0.1-1.3,0.6-2.1,0.8-2.5C6.9,4,9.8,3.8,10.3,3.7c0.2,0,0.3,0,0.4,0c3,0,4.9,1.7,4.9,5.1v6.1
		c0,0.4-0.4,0.8-0.8,0.8c-0.4,0-0.8-0.4-0.8-0.8V9c0-2.5-1.3-3.8-3.6-3.8c-0.4,0-1.8,0-2.9,1C6.2,7.4,6.2,8.9,6.2,9.1
		c0,1.9,0,3.8,0,5.7c0,0.4-0.3,0.8-0.7,0.8c-0.4,0-0.8-0.4-0.8-0.9C4.6,12.8,4.6,10.8,4.6,8.7z"/>
</g>
<path class="st0" d="M14.3,15.7"/>
<path class="st0" d="M9.1,15.5"/>
<path class="st0" d="M18.9,3.2"/>
</svg>
